<svg xmlns="http://www.w3.org/2000/svg" width="76.863" height="91.545" viewBox="0 0 76.863 91.545">
  <g id="Group_1092" data-name="Group 1092" transform="translate(-180.521 -638.31)">
    <g id="Artwork_2" data-name="Artwork 2" transform="translate(218.952 684.082)">
      <g id="Group_1091" data-name="Group 1091" transform="translate(-38.431 -45.772)">
        <path id="Path_1873" data-name="Path 1873" d="M44.661,98.444V86.64H33.492a2.239,2.239,0,0,0-2.228,2.454l6.9,25.969a2.238,2.238,0,0,0,2.228,2.031H51.254a2.241,2.241,0,0,0,2.228-2.017l2.327-8.151H53.143A8.482,8.482,0,0,1,44.661,98.444Z" transform="translate(-9.216 -25.549)" fill="#a5b3b5"/>
        <g id="Group_1090" data-name="Group 1090">
          <path id="Path_1874" data-name="Path 1874" d="M68.134,24.848H67.3a1.614,1.614,0,0,1-1.579-1.312V23.53a1.439,1.439,0,0,1,0-.649l2.27-10.3A2.617,2.617,0,0,0,68.1,12a3.227,3.227,0,0,0-3.222-3.526H38.406v-4.2a1.431,1.431,0,0,1,1.424-1.431h2.186A1.289,1.289,0,0,0,43.1,1.417,1.291,1.291,0,0,0,42.016,0H31.983c-.592,0-1.072.642-1.072,1.417s.479,1.424,1.072,1.424h2.27a1.435,1.435,0,0,1,1.424,1.431v4.2H8.608A3.224,3.224,0,0,0,5.379,12a2.775,2.775,0,0,0,.106.578l2.278,10.3a1.563,1.563,0,0,1,0,.677,1.647,1.647,0,0,1-1.587,1.29H5.583a5.678,5.678,0,0,0-5.57,6.134,4.683,4.683,0,0,0,.106.91L4.145,50.951a5.632,5.632,0,0,0,5.465,4.562H35.445V49.076H25.728A1.43,1.43,0,0,1,24.4,47.884L21.23,33.62a1.558,1.558,0,0,1,1.333-2H37.426a8.469,8.469,0,0,1,6.5-3.032H73.366A5.591,5.591,0,0,0,68.134,24.848ZM19.241,49.189H9.68a1.864,1.864,0,0,1-1.826-1.213L4.215,33.535a1.688,1.688,0,0,1,1.812-2.024h9.286a.8.8,0,0,1,.853.733l3.927,16.211A.8.8,0,0,1,19.241,49.189ZM62.112,15.245l-1.77,7.707a1.409,1.409,0,0,1-1.375,1.192H14.5a1.413,1.413,0,0,1-1.368-1.192l-1.777-7.707a1.46,1.46,0,0,1,1.375-1.77H60.751A1.458,1.458,0,0,1,62.112,15.245Z" transform="translate(0)" fill="#a5b3b5"/>
        </g>
        <path id="Path_1875" data-name="Path 1875" d="M90.415,47.35H60.165a3.236,3.236,0,0,0-3.236,3.236v36.37a3.232,3.232,0,0,0,3.236,3.236H90.415a3.231,3.231,0,0,0,3.236-3.236V50.586A3.236,3.236,0,0,0,90.415,47.35ZM63.07,59.407h9.942a1.41,1.41,0,0,1,0,2.82H63.07a1.41,1.41,0,0,1,0-2.82ZM87.235,78.135H63.07a1.41,1.41,0,0,1,0-2.82H87.235a1.41,1.41,0,0,1,0,2.82Zm0-7.954H63.07a1.41,1.41,0,0,1,0-2.82H87.235a1.41,1.41,0,0,1,0,2.82Zm3.13-16.944L84.033,63.709a1.4,1.4,0,0,1-1.205.677h-.007a1.408,1.408,0,0,1-1.206-.684l-2.983-4.992a1.412,1.412,0,0,1,2.426-1.445l1.777,2.976,5.119-8.461a1.409,1.409,0,0,1,2.411,1.46Z" transform="translate(-16.788 -13.963)" fill="#a5b3b5"/>
      </g>
    </g>
  </g>
</svg>
