<svg xmlns="http://www.w3.org/2000/svg" width="103.859" height="103.856" viewBox="0 0 103.859 103.856">
  <path id="workshop" d="M99.53,103.856H77.893a4.327,4.327,0,0,1-3.137-7.309,20,20,0,0,1,27.911,0,4.327,4.327,0,0,1-3.137,7.309Zm-32.805-2.618a4.326,4.326,0,0,0-.84-4.691,19.214,19.214,0,0,0-13.956-5.673,19.214,19.214,0,0,0-13.956,5.673,4.327,4.327,0,0,0,3.137,7.309H62.748a4.329,4.329,0,0,0,3.977-2.618Zm-36.782,0a4.326,4.326,0,0,0-.84-4.691,19.214,19.214,0,0,0-13.956-5.673A19.214,19.214,0,0,0,1.191,96.547a4.327,4.327,0,0,0,3.137,7.309H25.965A4.329,4.329,0,0,0,29.942,101.238Zm-14.8-14.691a8.655,8.655,0,1,0-8.655-8.655,8.652,8.652,0,0,0,8.655,8.655Zm36.782,0a8.655,8.655,0,1,0-8.655-8.655A8.652,8.652,0,0,0,51.929,86.547Zm36.782,0a8.655,8.655,0,1,0-8.655-8.655A8.652,8.652,0,0,0,88.711,86.547ZM19.474,21.637A10.818,10.818,0,1,0,8.656,10.818,10.817,10.817,0,0,0,19.474,21.637ZM88.711,0H35.658a19.378,19.378,0,0,1,3.289,10.818,19.234,19.234,0,0,1-1.194,6.491H60.069c6.279,0,12.047,4.232,13.242,10.394A13,13,0,0,1,60.58,43.273H43.27V56.255A4.329,4.329,0,0,0,47.6,60.583H69.234V56.255a4.329,4.329,0,0,1,4.327-4.327h8.655a4.329,4.329,0,0,1,4.327,4.327v4.327h2.164a15.146,15.146,0,0,0,15.146-15.146V15.146A15.146,15.146,0,0,0,88.707,0ZM34.62,56.255V34.619H60.584a4.327,4.327,0,0,0,0-8.655H17.311A17.31,17.31,0,0,0,0,43.273V56.255a4.329,4.329,0,0,0,4.327,4.327H30.293A4.329,4.329,0,0,0,34.62,56.255Z" transform="translate(0)" fill="#a5b3b5"/>
</svg>
