<svg id="Group_978" data-name="Group 978" xmlns="http://www.w3.org/2000/svg" xmlns:xlink="http://www.w3.org/1999/xlink" width="101.911" height="103.431" viewBox="0 0 101.911 103.431">
  <defs>
    <clipPath id="clip-path">
      <rect id="Rectangle_776" data-name="Rectangle 776" width="101.911" height="103.431" fill="none"/>
    </clipPath>
  </defs>
  <g id="Group_977" data-name="Group 977" clip-path="url(#clip-path)">
    <path id="Path_1573" data-name="Path 1573" d="M97.646,241.057H76.419a4.245,4.245,0,0,1-3.078-7.17,19.622,19.622,0,0,1,27.383,0,4.245,4.245,0,0,1-3.078,7.17m-32.185-2.568a4.245,4.245,0,0,0-.824-4.6,18.85,18.85,0,0,0-13.691-5.566,18.85,18.85,0,0,0-13.692,5.566,4.245,4.245,0,0,0,3.078,7.17H61.56a4.247,4.247,0,0,0,3.9-2.568m-36.086,0a4.244,4.244,0,0,0-.824-4.6,18.85,18.85,0,0,0-13.691-5.566,18.85,18.85,0,0,0-13.692,5.566,4.245,4.245,0,0,0,3.078,7.17H25.474a4.246,4.246,0,0,0,3.9-2.568M14.861,224.076a8.491,8.491,0,1,0-8.491-8.491,8.488,8.488,0,0,0,8.491,8.491m36.086,0a8.491,8.491,0,1,0-8.491-8.491,8.488,8.488,0,0,0,8.491,8.491m36.086,0a8.491,8.491,0,1,0-8.491-8.491,8.488,8.488,0,0,0,8.491,8.491" transform="translate(0 -137.626)" fill="#a5b3b5"/>
    <path id="Path_1574" data-name="Path 1574" d="M189.773,14.929,176.645,0,174.1.024l5.151,14.7a.035.035,0,0,1-.01.013l-15.7.48-5.626-6.4-1.284.013,2.461,7.03-5.732,2.794a.573.573,0,0,0,0,1.088l5.737,2.767-2.466,7.037,1.284.013,5.613-6.383,15.271.7a.628.628,0,0,1,.037.064l-6.447,14.439,2.547-.027L189.391,23.5c8.892-.164,14.172-1.688,14.172-4.308,0-.9-.981-4.264-13.79-4.264" transform="translate(-101.652 -0.001)" fill="#a5b3b5"/>
    <path id="Path_1575" data-name="Path 1575" d="M26.527,87.286H13.406V74.95H26.527Zm0-14.556H13.406V68.244a31.487,31.487,0,0,1,1.539-9.749l12.478,4.056a18.382,18.382,0,0,0-.9,5.693ZM28,61.023,15.932,55.866a31.681,31.681,0,0,1,9.338-12.26l8.186,10.254A18.516,18.516,0,0,0,28,61.023M34.78,52.9,27.534,41.957a31.511,31.511,0,0,1,14.56-5.1l1.164,13.069A18.344,18.344,0,0,0,34.78,52.9m22.449-3.044H44.893V36.731H57.229Z" transform="translate(-8.909 -24.41)" fill="#a5b3b5"/>
  </g>
</svg>
