<svg id="Group_989" data-name="Group 989" xmlns="http://www.w3.org/2000/svg" xmlns:xlink="http://www.w3.org/1999/xlink" width="1348" height="782" viewBox="0 0 1348 782">
  <defs>
    <clipPath id="clip-path">
      <rect id="Rectangle_781" data-name="Rectangle 781" width="231.917" height="207.336" fill="none"/>
    </clipPath>
  </defs>
  <g id="Group_988" data-name="Group 988" clip-path="url(#clip-path)">
    <g id="Group_987" data-name="Group 987">
      <g id="Group_986" data-name="Group 986" clip-path="url(#clip-path)">
        <g id="Group_985" data-name="Group 985" style="mix-blend-mode: soft-light;isolation: isolate">
          <g id="Group_984" data-name="Group 984">
            <g id="Group_983" data-name="Group 983" clip-path="url(#clip-path)">
              <path id="Path_1581" data-name="Path 1581" d="M231.917,153.121l-85.473-69.24c.084-.081.084-.22.2-.272L224.885,41.37,213.528,32.6,98.44,48.718C52.037,13.492,16.039-8.519,3.683,3.147c-14.8,13.974,16.75,45.867,63.547,82.659l6.648,112.756,11.349,8.774,27.8-83.774c.015-.066.1-.081.13-.14l93.784,76.822-36.8-68.434Z" fill="#fff"/>
            </g>
          </g>
        </g>
      </g>
    </g>
  </g>
  <path id="Path_23" data-name="Path 23" d="M1242.077,84.148c-165.522,122.574-431.017,98.162-629.46,81.1C313.971,139.571,28.654,28.211,25.87,20.811c7.078,18.842,25.382,42.357,35.873,54.7C129,154.635,201.89,217.458,289.1,282.4c278.577,204.547,606,339.253,952.974,309.308" transform="translate(170, 130)" fill="#fff" style="mix-blend-mode: soft-light;isolation: isolate"/>
</svg>
