<svg xmlns="http://www.w3.org/2000/svg" width="27.184" height="27.183" viewBox="0 0 27.184 27.183">
  <g id="Ilustración_4" data-name="Ilustración 4" transform="translate(26.929 26.928)">
    <path id="Trazado_725" data-name="Trazado 725" d="M16.3,27.183H10.879l-.409-4.095a.407.407,0,0,0-.259-.342q-.36-.132-.705-.29a.408.408,0,0,0-.422.06L5.9,25.121,2.063,21.285l2.6-3.184a.407.407,0,0,0,.059-.423q-.157-.344-.289-.7a.409.409,0,0,0-.342-.26L0,16.3V10.879l4.095-.409a.408.408,0,0,0,.343-.259q.131-.359.289-.7a.406.406,0,0,0-.059-.423L2.063,5.9,5.9,2.062l3.183,2.6a.408.408,0,0,0,.423.059q.346-.158.7-.289a.406.406,0,0,0,.259-.342L10.879,0H16.3l.41,4.095a.406.406,0,0,0,.259.342q.359.131.7.289a.407.407,0,0,0,.424-.059l3.183-2.6L25.122,5.9l-2.6,3.183a.406.406,0,0,0-.059.423q.158.346.289.7a.408.408,0,0,0,.342.259l4.1.409V16.3l-4.1.409a.409.409,0,0,0-.342.26h0q-.131.359-.289.7a.407.407,0,0,0,.059.423l2.6,3.184-3.837,3.836-3.183-2.6a.405.405,0,0,0-.423-.06c-.229.105-.464.2-.7.289a.409.409,0,0,0-.26.343Zm-4.329-1.211h3.232l.3-3a1.627,1.627,0,0,1,1.049-1.36q.313-.115.615-.253a1.625,1.625,0,0,1,1.7.223l2.335,1.91L23.489,21.2l-1.91-2.334a1.628,1.628,0,0,1-.223-1.7q.138-.3.253-.615h0a1.623,1.623,0,0,1,1.359-1.049l3-.3V11.976l-3-.3a1.624,1.624,0,0,1-1.359-1.048q-.115-.315-.253-.617a1.624,1.624,0,0,1,.223-1.695l1.91-2.334L21.2,3.695l-2.335,1.91a1.621,1.621,0,0,1-1.7.223c-.2-.091-.406-.176-.615-.252a1.627,1.627,0,0,1-1.05-1.359l-.3-3H11.976l-.3,3a1.628,1.628,0,0,1-1.049,1.36c-.21.076-.415.161-.617.253A1.624,1.624,0,0,1,8.315,5.6L5.981,3.695,3.7,5.981l1.91,2.334a1.626,1.626,0,0,1,.223,1.7c-.092.2-.176.407-.253.616a1.624,1.624,0,0,1-1.36,1.049l-3,.3v3.231l3,.3a1.623,1.623,0,0,1,1.359,1.049c.077.209.161.414.253.615a1.627,1.627,0,0,1-.223,1.7L3.7,21.2l2.285,2.285,2.335-1.91a1.627,1.627,0,0,1,1.695-.223q.3.139.617.254a1.626,1.626,0,0,1,1.049,1.359Zm1.685-7.013a5.367,5.367,0,1,1,5.368-5.367A5.374,5.374,0,0,1,13.661,18.959Zm0-9.524a4.156,4.156,0,1,0,4.156,4.156A4.161,4.161,0,0,0,13.661,9.436Z" transform="translate(-26.929 -26.928)" fill="#13151a"/>
  </g>
</svg>
