<svg xmlns="http://www.w3.org/2000/svg" width="82.833" height="82.833" viewBox="0 0 82.833 82.833">
  <g id="Grupo_992" data-name="Grupo 992" transform="translate(-920.095 -385.021)">
    <path id="Trazado_1585" data-name="Trazado 1585" d="M150.307,482.386c-.067-.143-.177-.408-.334-.843.019.052.353.079,1.365.492l-1.889-1.6s0-.005,0-.006l1.729-.974-.251-.2-2.543.372c-.7-.554-1.8-1.43-2.146-1l0,0,0,0c-.346.43.771,1.283,1.461,1.849l.147,2.6.251.2.614-1.932,0,0,2.073,1.771a2.427,2.427,0,0,1-.48-.735" transform="translate(790.752 -38.396)" fill="#fff"/>
    <g id="Grupo_991" data-name="Grupo 991">
      <path id="Trazado_1583" data-name="Trazado 1583" d="M211.483,350.7a24.027,24.027,0,0,0,3.357-.6,17.8,17.8,0,0,0,9.028-5.1c3.909-4.383,4.857-10.944,3.895-16.575a16.2,16.2,0,0,0-4.017-8.443,15.84,15.84,0,0,0-9.551-4.582c-6.828-.845-14.1,1.838-19.4,6.087-1.463,1.174-4.728,3.721-5.34,5.107a45.376,45.376,0,0,1,6.689-1.663c5.783-.885,13.561-2.227,17.019,4.225a7.979,7.979,0,0,1-.247,7.913c-3.209,5-10.5,4.3-15.705,3.832a42.952,42.952,0,0,1-12.967-3.331,5.169,5.169,0,0,0,.793,1.261,29.694,29.694,0,0,0,5.024,4.771c6.252,4.79,13.617,7.92,21.418,7.1" transform="translate(757.061 106.072)" fill="#fff"/>
      <path id="Trazado_1584" data-name="Trazado 1584" d="M162.473,127.482l0,1.015c.941-.916,2.182-1.954,3.712-3.178l.306-.245a31.724,31.724,0,0,1,8.381-4.809l.037-14.44,2.81.007,8.626.022a16.8,16.8,0,0,0,15.681-10.669l-24.28-.063L169.4,95.1a16.8,16.8,0,0,0-15.681,10.669l8.77.023s.018,16.29-.018,21.69" transform="translate(784.074 300.871)" fill="#fff"/>
    </g>
  </g>
</svg>
