<svg id="Group_982" data-name="Group 982" xmlns="http://www.w3.org/2000/svg" xmlns:xlink="http://www.w3.org/1999/xlink" width="84.166" height="112.364" viewBox="0 0 84.166 112.364">
  <defs>
    <clipPath id="clip-path">
      <rect id="Rectangle_778" data-name="Rectangle 778" width="84.166" height="112.364" fill="none"/>
    </clipPath>
  </defs>
  <g id="Group_981" data-name="Group 981" clip-path="url(#clip-path)">
    <path id="Path_1578" data-name="Path 1578" d="M71,243.187H12.5a11.7,11.7,0,0,1-8.482-19.76c9.266-9.746,23.012-15.338,37.73-15.338s28.464,5.592,37.729,15.338A11.7,11.7,0,0,1,71,243.187" transform="translate(-0.502 -130.823)" fill="#a5b3b5"/>
    <path id="Path_1579" data-name="Path 1579" d="M94.867,100.764A23.4,23.4,0,1,1,49.284,93.3l2.852,1.43,9.8,4.9a21.6,21.6,0,0,0,18.826,0l9.792-4.894L93.619,93.2a23.374,23.374,0,0,1,1.248,7.56" transform="translate(-30.221 -58.596)" fill="#a5b3b5"/>
    <path id="Path_1580" data-name="Path 1580" d="M83.416,19,48.538,1.684a17.181,17.181,0,0,0-14.834,0L.746,18.159a1.349,1.349,0,0,0,0,2.414L20.883,30.639l3.026,1.515,9.8,4.9a17.142,17.142,0,0,0,14.841,0l9.8-4.9,3.219-1.608L73.6,24.52a1.352,1.352,0,0,1,1.957,1.21V50.293a1.352,1.352,0,0,0,1.352,1.352h5.9a1.352,1.352,0,0,0,1.352-1.352V20.209a1.345,1.345,0,0,0-.75-1.21M62.9,20.5a1.455,1.455,0,0,1-.278.186l-6.661,3.331L44.584,29.7a8.38,8.38,0,0,1-3.68.8h-.052a8.329,8.329,0,0,1-3.6-.8L26.04,24.093,18.855,20.5a1.38,1.38,0,0,1,.022-2.128L37.25,9.188A8.1,8.1,0,0,1,40.429,8.4c.3-.015.594-.015.895,0a8.082,8.082,0,0,1,3.178.783l18.373,9.186A1.38,1.38,0,0,1,62.9,20.5" transform="translate(0 0)" fill="#a5b3b5"/>
  </g>
</svg>
